General
Unique ID                                : 117579223140528181597131500769253303039 (0x5874EF466DDB3A46D5BDC183325CA2FF)
Complete name                            : Aliens.1986.Special.Edition.UHD.BluRay.2160p.TrueHD.Atmos.7.1.DV.HEVC.REMUX-FraMeSToR.mkv
Format                                   : Matroska
Format version                           : Version 4
File size                                : 64.4 GiB
Duration                                 : 2 h 34 min
Overall bit rate mode                    : Variable
Overall bit rate                         : 59.7 Mb/s
Movie name                               : Aliens (1986) Special Edition
Encoded date                             : UTC 2024-03-15 20:25:54
Writing application                      : mkvmerge v83.0.8 ('Circle Of Friends') 64-bit
Writing library                          : libebml v1.4.5 + libmatroska v1.7.1
IMDB                                     : tt0090605
TMDB                                     : movie/679

Video
ID                                       : 1
Format                                   : HEVC
Format/Info                              : High Efficiency Video Coding
Format profile                           : Main 10@L5.1@High
HDR format                               : Dolby Vision, Version 1.0, dvhe.07.06, BL+EL+RPU, Blu-ray compatible / SMPTE ST 2086, HDR10 compatible
Codec ID                                 : V_MPEGH/ISO/HEVC
Duration                                 : 2 h 34 min
Bit rate                                 : 51.6 Mb/s
Width                                    : 3 840 pixels
Height                                   : 2 160 pixels
Display aspect ratio                     : 16:9
Frame rate mode                          : Constant
Frame rate                               : 23.976 (24000/1001) FPS
Color space                              : YUV
Chroma subsampling                       : 4:2:0 (Type 2)
Bit depth                                : 10 bits
Bits/(Pixel*Frame)                       : 0.260
Stream size                              : 55.7 GiB (86%)
Default                                  : Yes
Forced                                   : No
Color range                              : Limited
Color primaries                          : BT.2020
Transfer characteristics                 : PQ
Matrix coefficients                      : BT.2020 non-constant
Mastering display color primaries        : BT.2020
Mastering display luminance              : min: 0.0001 cd/m2, max: 1000 cd/m2
Maximum Content Light Level              : 203 cd/m2
Maximum Frame-Average Light Level        : 194 cd/m2

Audio #1
ID                                       : 2
Format                                   : MLP FBA 16-ch
Format/Info                              : Meridian Lossless Packing FBA with 16-channel presentation
Commercial name                          : Dolby TrueHD with Dolby Atmos
Codec ID                                 : A_TRUEHD
Duration                                 : 2 h 34 min
Bit rate mode                            : Variable
Bit rate                                 : 4 288 kb/s
Maximum bit rate                         : 5 799 kb/s
Channel(s)                               : 8 channels
Channel layout                           : L R C LFE Ls Rs Lb Rb
Sampling rate                            : 48.0 kHz
Frame rate                               : 1 200.000 FPS (40 SPF)
Compression mode                         : Lossless
Stream size                              : 4.63 GiB (7%)
Title                                    : TrueHD Atmos 7.1
Language                                 : English
Default                                  : Yes
Forced                                   : No
Number of dynamic objects                : 13
Bed channel count                        : 1 channel
Bed channel configuration                : LFE

Audio #2
ID                                       : 3
Format                                   : AC-3
Format/Info                              : Audio Coding 3
Commercial name                          : Dolby Digital
Codec ID                                 : A_AC3
Duration                                 : 2 h 34 min
Bit rate mode                            : Constant
Bit rate                                 : 640 kb/s
Channel(s)                               : 6 channels
Channel layout                           : L R C LFE Ls Rs
Sampling rate                            : 48.0 kHz
Frame rate                               : 31.250 FPS (1536 SPF)
Compression mode                         : Lossy
Stream size                              : 707 MiB (1%)
Title                                    : AC-3 5.1
Language                                 : English
Service kind                             : Complete Main
Default                                  : No
Forced                                   : No

Audio #3
ID                                       : 4
Format                                   : FLAC
Format/Info                              : Free Lossless Audio Codec
Codec ID                                 : A_FLAC
Duration                                 : 2 h 34 min
Bit rate mode                            : Variable
Bit rate                                 : 1 320 kb/s
Channel(s)                               : 2 channels
Channel layout                           : L R
Sampling rate                            : 48.0 kHz
Frame rate                               : 11.719 FPS (4096 SPF)
Bit depth                                : 24 bits
Compression mode                         : Lossless
Stream size                              : 1.42 GiB (2%)
Title                                    : FLAC 2.0
Writing library                          : libFLAC 1.4.3 (UTC 2023-06-23)
Language                                 : English
Default                                  : No
Forced                                   : No

Audio #4
ID                                       : 5
Format                                   : AC-3
Format/Info                              : Audio Coding 3
Commercial name                          : Dolby Digital
Codec ID                                 : A_AC3
Duration                                 : 2 h 34 min
Bit rate mode                            : Constant
Bit rate                                 : 192 kb/s
Channel(s)                               : 2 channels
Channel layout                           : L R
Sampling rate                            : 48.0 kHz
Frame rate                               : 31.250 FPS (1536 SPF)
Compression mode                         : Lossy
Stream size                              : 212 MiB (0%)
Title                                    : Commentary by Director James Cameron, Producer Gale Anne Hurd, Effects Creator Stan Winston, Effects Supervisors Robert Skotak, Dennis Skotak, Pat McClung, Actors Michael Biehn, Bill Paxton, Lance Henriksen, Jenette Goldstein, Carrie Henn & Christopher Henn
Language                                 : English
Service kind                             : Complete Main
Default                                  : No
Forced                                   : No

Text #1
ID                                       : 6
Format                                   : PGS
Codec ID                                 : S_HDMV/PGS
Codec ID/Info                            : Picture based subtitle format used on BDs/HD-DVDs
Duration                                 : 2 h 29 min
Bit rate                                 : 20.2 kb/s
Count of elements                        : 2260
Stream size                              : 21.6 MiB (0%)
Title                                    : English
Language                                 : English
Default                                  : No
Forced                                   : No

Text #2
ID                                       : 7
Format                                   : PGS
Codec ID                                 : S_HDMV/PGS
Codec ID/Info                            : Picture based subtitle format used on BDs/HD-DVDs
Duration                                 : 2 h 31 min
Bit rate                                 : 35.2 kb/s
Count of elements                        : 3386
Stream size                              : 38.2 MiB (0%)
Title                                    : English (SDH)
Language                                 : English
Default                                  : No
Forced                                   : No

Text #3
ID                                       : 8
Format                                   : PGS
Codec ID                                 : S_HDMV/PGS
Codec ID/Info                            : Picture based subtitle format used on BDs/HD-DVDs
Duration                                 : 2 h 31 min
Bit rate                                 : 12.1 kb/s
Count of elements                        : 2248
Stream size                              : 13.1 MiB (0%)
Title                                    : Arabic
Language                                 : Arabic
Default                                  : No
Forced                                   : No

Text #4
ID                                       : 9
Format                                   : PGS
Codec ID                                 : S_HDMV/PGS
Codec ID/Info                            : Picture based subtitle format used on BDs/HD-DVDs
Duration                                 : 2 h 33 min
Bit rate                                 : 19.9 kb/s
Count of elements                        : 2282
Stream size                              : 21.8 MiB (0%)
Title                                    : Bulgarian
Language                                 : Bulgarian
Default                                  : No
Forced                                   : No

Text #5
ID                                       : 10
Format                                   : PGS
Codec ID                                 : S_HDMV/PGS
Codec ID/Info                            : Picture based subtitle format used on BDs/HD-DVDs
Duration                                 : 2 h 33 min
Bit rate                                 : 16.0 kb/s
Count of elements                        : 2282
Stream size                              : 17.5 MiB (0%)
Title                                    : Chinese
Language                                 : Chinese
Default                                  : No
Forced                                   : No

Text #6
ID                                       : 11
Format                                   : PGS
Codec ID                                 : S_HDMV/PGS
Codec ID/Info                            : Picture based subtitle format used on BDs/HD-DVDs
Duration                                 : 2 h 33 min
Bit rate                                 : 20.2 kb/s
Count of elements                        : 3032
Stream size                              : 22.1 MiB (0%)
Title                                    : Chinese (Simplified)
Language                                 : Chinese
Default                                  : No
Forced                                   : No

Text #7
ID                                       : 12
Format                                   : PGS
Codec ID                                 : S_HDMV/PGS
Codec ID/Info                            : Picture based subtitle format used on BDs/HD-DVDs
Duration                                 : 2 h 33 min
Bit rate                                 : 16.1 kb/s
Count of elements                        : 2274
Stream size                              : 17.6 MiB (0%)
Title                                    : Chinese (Traditional)
Language                                 : Chinese
Default                                  : No
Forced                                   : No

Text #8
ID                                       : 13
Format                                   : PGS
Codec ID                                 : S_HDMV/PGS
Codec ID/Info                            : Picture based subtitle format used on BDs/HD-DVDs
Duration                                 : 2 h 33 min
Bit rate                                 : 18.3 kb/s
Count of elements                        : 2280
Stream size                              : 20.0 MiB (0%)
Title                                    : Croatian
Language                                 : Croatian
Default                                  : No
Forced                                   : No

Text #9
ID                                       : 14
Format                                   : PGS
Codec ID                                 : S_HDMV/PGS
Codec ID/Info                            : Picture based subtitle format used on BDs/HD-DVDs
Duration                                 : 2 h 33 min
Bit rate                                 : 18.1 kb/s
Count of elements                        : 2280
Stream size                              : 19.8 MiB (0%)
Title                                    : Czech
Language                                 : Czech
Default                                  : No
Forced                                   : No

Text #10
ID                                       : 15
Format                                   : PGS
Codec ID                                 : S_HDMV/PGS
Codec ID/Info                            : Picture based subtitle format used on BDs/HD-DVDs
Duration                                 : 2 h 31 min
Bit rate                                 : 18.2 kb/s
Count of elements                        : 2268
Stream size                              : 19.7 MiB (0%)
Title                                    : Danish
Language                                 : Danish
Default                                  : No
Forced                                   : No

Text #11
ID                                       : 16
Format                                   : PGS
Codec ID                                 : S_HDMV/PGS
Codec ID/Info                            : Picture based subtitle format used on BDs/HD-DVDs
Duration                                 : 2 h 31 min
Bit rate                                 : 18.2 kb/s
Count of elements                        : 2120
Stream size                              : 19.7 MiB (0%)
Title                                    : Dutch
Language                                 : Dutch
Default                                  : No
Forced                                   : No

Text #12
ID                                       : 17
Format                                   : PGS
Codec ID                                 : S_HDMV/PGS
Codec ID/Info                            : Picture based subtitle format used on BDs/HD-DVDs
Duration                                 : 2 h 33 min
Bit rate                                 : 21.2 kb/s
Count of elements                        : 2286
Stream size                              : 23.2 MiB (0%)
Title                                    : Estonian
Language                                 : Estonian
Default                                  : No
Forced                                   : No

Text #13
ID                                       : 18
Format                                   : PGS
Codec ID                                 : S_HDMV/PGS
Codec ID/Info                            : Picture based subtitle format used on BDs/HD-DVDs
Duration                                 : 2 h 33 min
Bit rate                                 : 21.0 kb/s
Count of elements                        : 2282
Stream size                              : 23.0 MiB (0%)
Title                                    : Finnish
Language                                 : Finnish
Default                                  : No
Forced                                   : No

Text #14
ID                                       : 19
Format                                   : PGS
Codec ID                                 : S_HDMV/PGS
Codec ID/Info                            : Picture based subtitle format used on BDs/HD-DVDs
Duration                                 : 2 h 33 min
Bit rate                                 : 26.4 kb/s
Count of elements                        : 2468
Stream size                              : 28.9 MiB (0%)
Title                                    : French (Parisian)
Language                                 : French
Default                                  : No
Forced                                   : No

Text #15
ID                                       : 20
Format                                   : PGS
Codec ID                                 : S_HDMV/PGS
Codec ID/Info                            : Picture based subtitle format used on BDs/HD-DVDs
Duration                                 : 2 h 31 min
Bit rate                                 : 22.1 kb/s
Count of elements                        : 2368
Stream size                              : 24.0 MiB (0%)
Title                                    : German
Language                                 : German
Default                                  : No
Forced                                   : No

Text #16
ID                                       : 21
Format                                   : PGS
Codec ID                                 : S_HDMV/PGS
Codec ID/Info                            : Picture based subtitle format used on BDs/HD-DVDs
Duration                                 : 2 h 33 min
Bit rate                                 : 19.6 kb/s
Count of elements                        : 2394
Stream size                              : 21.5 MiB (0%)
Title                                    : Greek
Language                                 : Greek
Default                                  : No
Forced                                   : No

Text #17
ID                                       : 22
Format                                   : PGS
Codec ID                                 : S_HDMV/PGS
Codec ID/Info                            : Picture based subtitle format used on BDs/HD-DVDs
Duration                                 : 2 h 33 min
Bit rate                                 : 14.7 kb/s
Count of elements                        : 2274
Stream size                              : 16.1 MiB (0%)
Title                                    : Hebrew
Language                                 : Hebrew
Default                                  : No
Forced                                   : No

Text #18
ID                                       : 23
Format                                   : PGS
Codec ID                                 : S_HDMV/PGS
Codec ID/Info                            : Picture based subtitle format used on BDs/HD-DVDs
Duration                                 : 2 h 31 min
Bit rate                                 : 17.8 kb/s
Count of elements                        : 2288
Stream size                              : 19.3 MiB (0%)
Title                                    : Hindi
Language                                 : Hindi
Default                                  : No
Forced                                   : No

Text #19
ID                                       : 24
Format                                   : PGS
Codec ID                                 : S_HDMV/PGS
Codec ID/Info                            : Picture based subtitle format used on BDs/HD-DVDs
Duration                                 : 2 h 33 min
Bit rate                                 : 19.6 kb/s
Count of elements                        : 2284
Stream size                              : 21.5 MiB (0%)
Title                                    : Hungarian
Language                                 : Hungarian
Default                                  : No
Forced                                   : No

Text #20
ID                                       : 25
Format                                   : PGS
Codec ID                                 : S_HDMV/PGS
Codec ID/Info                            : Picture based subtitle format used on BDs/HD-DVDs
Duration                                 : 2 h 31 min
Bit rate                                 : 20.4 kb/s
Count of elements                        : 2268
Stream size                              : 22.1 MiB (0%)
Title                                    : Icelandic
Language                                 : Icelandic
Default                                  : No
Forced                                   : No

Text #21
ID                                       : 26
Format                                   : PGS
Codec ID                                 : S_HDMV/PGS
Codec ID/Info                            : Picture based subtitle format used on BDs/HD-DVDs
Duration                                 : 2 h 31 min
Bit rate                                 : 20.9 kb/s
Count of elements                        : 2286
Stream size                              : 22.6 MiB (0%)
Title                                    : Indonesian
Language                                 : Indonesian
Default                                  : No
Forced                                   : No

Text #22
ID                                       : 27
Format                                   : PGS
Codec ID                                 : S_HDMV/PGS
Codec ID/Info                            : Picture based subtitle format used on BDs/HD-DVDs
Duration                                 : 2 h 31 min
Bit rate                                 : 19.9 kb/s
Count of elements                        : 2274
Stream size                              : 21.6 MiB (0%)
Title                                    : Italian
Language                                 : Italian
Default                                  : No
Forced                                   : No

Text #23
ID                                       : 28
Format                                   : PGS
Codec ID                                 : S_HDMV/PGS
Codec ID/Info                            : Picture based subtitle format used on BDs/HD-DVDs
Duration                                 : 2 h 28 min
Bit rate                                 : 13.3 kb/s
Count of elements                        : 2520
Stream size                              : 14.2 MiB (0%)
Title                                    : Japanese
Language                                 : Japanese
Default                                  : No
Forced                                   : No

Text #24
ID                                       : 29
Format                                   : PGS
Codec ID                                 : S_HDMV/PGS
Codec ID/Info                            : Picture based subtitle format used on BDs/HD-DVDs
Duration                                 : 2 h 31 min
Bit rate                                 : 19.7 kb/s
Count of elements                        : 2290
Stream size                              : 21.4 MiB (0%)
Title                                    : Kazakh
Language                                 : Kazakh
Default                                  : No
Forced                                   : No

Text #25
ID                                       : 30
Format                                   : PGS
Codec ID                                 : S_HDMV/PGS
Codec ID/Info                            : Picture based subtitle format used on BDs/HD-DVDs
Duration                                 : 2 h 33 min
Bit rate                                 : 13.4 kb/s
Count of elements                        : 2264
Stream size                              : 14.7 MiB (0%)
Title                                    : Korean
Language                                 : Korean
Default                                  : No
Forced                                   : No

Text #26
ID                                       : 31
Format                                   : PGS
Codec ID                                 : S_HDMV/PGS
Codec ID/Info                            : Picture based subtitle format used on BDs/HD-DVDs
Duration                                 : 2 h 33 min
Bit rate                                 : 19.4 kb/s
Count of elements                        : 2282
Stream size                              : 21.3 MiB (0%)
Title                                    : Latvian
Language                                 : Latvian
Default                                  : No
Forced                                   : No

Text #27
ID                                       : 32
Format                                   : PGS
Codec ID                                 : S_HDMV/PGS
Codec ID/Info                            : Picture based subtitle format used on BDs/HD-DVDs
Duration                                 : 2 h 33 min
Bit rate                                 : 17.4 kb/s
Count of elements                        : 2324
Stream size                              : 19.1 MiB (0%)
Title                                    : Lithuanian
Language                                 : Lithuanian
Default                                  : No
Forced                                   : No

Text #28
ID                                       : 33
Format                                   : PGS
Codec ID                                 : S_HDMV/PGS
Codec ID/Info                            : Picture based subtitle format used on BDs/HD-DVDs
Duration                                 : 2 h 31 min
Bit rate                                 : 19.7 kb/s
Count of elements                        : 2284
Stream size                              : 21.4 MiB (0%)
Title                                    : Malayalam
Language                                 : Malayalam
Default                                  : No
Forced                                   : No

Text #29
ID                                       : 34
Format                                   : PGS
Codec ID                                 : S_HDMV/PGS
Codec ID/Info                            : Picture based subtitle format used on BDs/HD-DVDs
Duration                                 : 2 h 31 min
Bit rate                                 : 21.1 kb/s
Count of elements                        : 2474
Stream size                              : 22.9 MiB (0%)
Title                                    : Norwegian
Language                                 : Norwegian
Default                                  : No
Forced                                   : No

Text #30
ID                                       : 35
Format                                   : PGS
Codec ID                                 : S_HDMV/PGS
Codec ID/Info                            : Picture based subtitle format used on BDs/HD-DVDs
Duration                                 : 2 h 33 min
Bit rate                                 : 18.4 kb/s
Count of elements                        : 2258
Stream size                              : 20.1 MiB (0%)
Title                                    : Polish
Language                                 : Polish
Default                                  : No
Forced                                   : No

Text #31
ID                                       : 36
Format                                   : PGS
Codec ID                                 : S_HDMV/PGS
Codec ID/Info                            : Picture based subtitle format used on BDs/HD-DVDs
Duration                                 : 2 h 33 min
Bit rate                                 : 19.5 kb/s
Count of elements                        : 2280
Stream size                              : 21.4 MiB (0%)
Title                                    : Portuguese (Brazilian)
Language                                 : Portuguese
Default                                  : No
Forced                                   : No

Text #32
ID                                       : 37
Format                                   : PGS
Codec ID                                 : S_HDMV/PGS
Codec ID/Info                            : Picture based subtitle format used on BDs/HD-DVDs
Duration                                 : 2 h 31 min
Bit rate                                 : 20.6 kb/s
Count of elements                        : 2278
Stream size                              : 22.3 MiB (0%)
Title                                    : Portuguese (Iberian)
Language                                 : Portuguese
Default                                  : No
Forced                                   : No

Text #33
ID                                       : 38
Format                                   : PGS
Codec ID                                 : S_HDMV/PGS
Codec ID/Info                            : Picture based subtitle format used on BDs/HD-DVDs
Duration                                 : 2 h 33 min
Bit rate                                 : 18.2 kb/s
Count of elements                        : 2264
Stream size                              : 20.0 MiB (0%)
Title                                    : Romanian
Language                                 : Romanian
Default                                  : No
Forced                                   : No

Text #34
ID                                       : 39
Format                                   : PGS
Codec ID                                 : S_HDMV/PGS
Codec ID/Info                            : Picture based subtitle format used on BDs/HD-DVDs
Duration                                 : 2 h 33 min
Bit rate                                 : 17.6 kb/s
Count of elements                        : 2342
Stream size                              : 19.3 MiB (0%)
Title                                    : Russian
Language                                 : Russian
Default                                  : No
Forced                                   : No

Text #35
ID                                       : 40
Format                                   : PGS
Codec ID                                 : S_HDMV/PGS
Codec ID/Info                            : Picture based subtitle format used on BDs/HD-DVDs
Duration                                 : 2 h 33 min
Bit rate                                 : 18.4 kb/s
Count of elements                        : 2288
Stream size                              : 20.2 MiB (0%)
Title                                    : Serbian
Language                                 : Serbian
Default                                  : No
Forced                                   : No

Text #36
ID                                       : 41
Format                                   : PGS
Codec ID                                 : S_HDMV/PGS
Codec ID/Info                            : Picture based subtitle format used on BDs/HD-DVDs
Duration                                 : 2 h 33 min
Bit rate                                 : 18.3 kb/s
Count of elements                        : 2254
Stream size                              : 20.0 MiB (0%)
Title                                    : Slovenian
Language                                 : Slovenian
Default                                  : No
Forced                                   : No

Text #37
ID                                       : 42
Format                                   : PGS
Codec ID                                 : S_HDMV/PGS
Codec ID/Info                            : Picture based subtitle format used on BDs/HD-DVDs
Duration                                 : 2 h 33 min
Bit rate                                 : 19.8 kb/s
Count of elements                        : 2294
Stream size                              : 21.6 MiB (0%)
Title                                    : Spanish (Castilian)
Language                                 : Spanish
Default                                  : No
Forced                                   : No

Text #38
ID                                       : 43
Format                                   : PGS
Codec ID                                 : S_HDMV/PGS
Codec ID/Info                            : Picture based subtitle format used on BDs/HD-DVDs
Duration                                 : 2 h 30 min
Bit rate                                 : 28.0 kb/s
Count of elements                        : 2648
Stream size                              : 30.1 MiB (0%)
Title                                    : Spanish (Latin American)
Language                                 : Spanish
Default                                  : No
Forced                                   : No

Text #39
ID                                       : 44
Format                                   : PGS
Codec ID                                 : S_HDMV/PGS
Codec ID/Info                            : Picture based subtitle format used on BDs/HD-DVDs
Duration                                 : 2 h 31 min
Bit rate                                 : 16.2 kb/s
Count of elements                        : 2254
Stream size                              : 17.6 MiB (0%)
Title                                    : Swedish
Language                                 : Swedish
Default                                  : No
Forced                                   : No

Text #40
ID                                       : 45
Format                                   : PGS
Codec ID                                 : S_HDMV/PGS
Codec ID/Info                            : Picture based subtitle format used on BDs/HD-DVDs
Duration                                 : 2 h 31 min
Bit rate                                 : 23.0 kb/s
Count of elements                        : 2324
Stream size                              : 24.9 MiB (0%)
Title                                    : Tagalog
Language                                 : Tagalog
Default                                  : No
Forced                                   : No

Text #41
ID                                       : 46
Format                                   : PGS
Codec ID                                 : S_HDMV/PGS
Codec ID/Info                            : Picture based subtitle format used on BDs/HD-DVDs
Duration                                 : 2 h 31 min
Bit rate                                 : 27.1 kb/s
Count of elements                        : 2288
Stream size                              : 29.4 MiB (0%)
Title                                    : Telugu
Language                                 : Telugu
Default                                  : No
Forced                                   : No

Text #42
ID                                       : 47
Format                                   : PGS
Codec ID                                 : S_HDMV/PGS
Codec ID/Info                            : Picture based subtitle format used on BDs/HD-DVDs
Duration                                 : 2 h 33 min
Bit rate                                 : 17.4 kb/s
Count of elements                        : 2282
Stream size                              : 19.1 MiB (0%)
Title                                    : Thai
Language                                 : Thai
Default                                  : No
Forced                                   : No

Text #43
ID                                       : 48
Format                                   : PGS
Codec ID                                 : S_HDMV/PGS
Codec ID/Info                            : Picture based subtitle format used on BDs/HD-DVDs
Duration                                 : 2 h 33 min
Bit rate                                 : 19.8 kb/s
Count of elements                        : 2300
Stream size                              : 21.6 MiB (0%)
Title                                    : Turkish
Language                                 : Turkish
Default                                  : No
Forced                                   : No

Text #44
ID                                       : 49
Format                                   : PGS
Codec ID                                 : S_HDMV/PGS
Codec ID/Info                            : Picture based subtitle format used on BDs/HD-DVDs
Duration                                 : 2 h 29 min
Bit rate                                 : 20.3 kb/s
Count of elements                        : 2286
Stream size                              : 21.6 MiB (0%)
Title                                    : Ukrainian
Language                                 : Ukrainian
Default                                  : No
Forced                                   : No

Text #45
ID                                       : 50
Format                                   : PGS
Codec ID                                 : S_HDMV/PGS
Codec ID/Info                            : Picture based subtitle format used on BDs/HD-DVDs
Duration                                 : 2 h 34 min
Bit rate                                 : 75.3 kb/s
Count of elements                        : 4959
Stream size                              : 83.1 MiB (0%)
Title                                    : English (Commentary)
Language                                 : English
Default                                  : No
Forced                                   : No

Text #46
ID                                       : 51
Format                                   : PGS
Codec ID                                 : S_HDMV/PGS
Codec ID/Info                            : Picture based subtitle format used on BDs/HD-DVDs
Duration                                 : 2 h 34 min
Bit rate                                 : 42.1 kb/s
Count of elements                        : 4012
Stream size                              : 46.4 MiB (0%)
Title                                    : Chinese (Simplified) (Commentary)
Language                                 : Chinese
Default                                  : No
Forced                                   : No

Text #47
ID                                       : 52
Format                                   : PGS
Codec ID                                 : S_HDMV/PGS
Codec ID/Info                            : Picture based subtitle format used on BDs/HD-DVDs
Duration                                 : 2 h 34 min
Bit rate                                 : 46.8 kb/s
Count of elements                        : 3978
Stream size                              : 51.6 MiB (0%)
Title                                    : Danish (Commentary)
Language                                 : Danish
Default                                  : No
Forced                                   : No

Text #48
ID                                       : 53
Format                                   : PGS
Codec ID                                 : S_HDMV/PGS
Codec ID/Info                            : Picture based subtitle format used on BDs/HD-DVDs
Duration                                 : 2 h 34 min
Bit rate                                 : 46.9 kb/s
Count of elements                        : 3888
Stream size                              : 51.8 MiB (0%)
Title                                    : Dutch (Commentary)
Language                                 : Dutch
Default                                  : No
Forced                                   : No

Text #49
ID                                       : 54
Format                                   : PGS
Codec ID                                 : S_HDMV/PGS
Codec ID/Info                            : Picture based subtitle format used on BDs/HD-DVDs
Duration                                 : 2 h 34 min
Bit rate                                 : 49.8 kb/s
Count of elements                        : 3906
Stream size                              : 54.9 MiB (0%)
Title                                    : Finnish (Commentary)
Language                                 : Finnish
Default                                  : No
Forced                                   : No

Text #50
ID                                       : 55
Format                                   : PGS
Codec ID                                 : S_HDMV/PGS
Codec ID/Info                            : Picture based subtitle format used on BDs/HD-DVDs
Duration                                 : 2 h 34 min
Bit rate                                 : 63.0 kb/s
Count of elements                        : 4413
Stream size                              : 69.6 MiB (0%)
Title                                    : French (Parisian) (Commentary)
Language                                 : French
Default                                  : No
Forced                                   : No

Text #51
ID                                       : 56
Format                                   : PGS
Codec ID                                 : S_HDMV/PGS
Codec ID/Info                            : Picture based subtitle format used on BDs/HD-DVDs
Duration                                 : 2 h 34 min
Bit rate                                 : 47.4 kb/s
Count of elements                        : 3902
Stream size                              : 52.4 MiB (0%)
Title                                    : German (Commentary)
Language                                 : German
Default                                  : No
Forced                                   : No

Text #52
ID                                       : 57
Format                                   : PGS
Codec ID                                 : S_HDMV/PGS
Codec ID/Info                            : Picture based subtitle format used on BDs/HD-DVDs
Duration                                 : 2 h 34 min
Bit rate                                 : 48.4 kb/s
Count of elements                        : 3898
Stream size                              : 53.4 MiB (0%)
Title                                    : Italian (Commentary)
Language                                 : Italian
Default                                  : No
Forced                                   : No

Text #53
ID                                       : 58
Format                                   : PGS
Codec ID                                 : S_HDMV/PGS
Codec ID/Info                            : Picture based subtitle format used on BDs/HD-DVDs
Duration                                 : 2 h 34 min
Bit rate                                 : 39.4 kb/s
Count of elements                        : 4312
Stream size                              : 43.4 MiB (0%)
Title                                    : Japanese (Commentary)
Language                                 : Japanese
Default                                  : No
Forced                                   : No

Text #54
ID                                       : 59
Format                                   : PGS
Codec ID                                 : S_HDMV/PGS
Codec ID/Info                            : Picture based subtitle format used on BDs/HD-DVDs
Duration                                 : 2 h 34 min
Bit rate                                 : 31.6 kb/s
Count of elements                        : 3900
Stream size                              : 34.9 MiB (0%)
Title                                    : Korean (Commentary)
Language                                 : Korean
Default                                  : No
Forced                                   : No

Text #55
ID                                       : 60
Format                                   : PGS
Codec ID                                 : S_HDMV/PGS
Codec ID/Info                            : Picture based subtitle format used on BDs/HD-DVDs
Duration                                 : 2 h 34 min
Bit rate                                 : 42.9 kb/s
Count of elements                        : 4020
Stream size                              : 47.4 MiB (0%)
Title                                    : Norwegian (Commentary)
Language                                 : Norwegian
Default                                  : No
Forced                                   : No

Text #56
ID                                       : 61
Format                                   : PGS
Codec ID                                 : S_HDMV/PGS
Codec ID/Info                            : Picture based subtitle format used on BDs/HD-DVDs
Duration                                 : 2 h 34 min
Bit rate                                 : 48.0 kb/s
Count of elements                        : 4018
Stream size                              : 52.9 MiB (0%)
Title                                    : Russian (Commentary)
Language                                 : Russian
Default                                  : No
Forced                                   : No

Text #57
ID                                       : 62
Format                                   : PGS
Codec ID                                 : S_HDMV/PGS
Codec ID/Info                            : Picture based subtitle format used on BDs/HD-DVDs
Duration                                 : 2 h 34 min
Bit rate                                 : 51.8 kb/s
Count of elements                        : 3948
Stream size                              : 57.1 MiB (0%)
Title                                    : Spanish (Castilian) (Commentary)
Language                                 : Spanish
Default                                  : No
Forced                                   : No

Text #58
ID                                       : 63
Format                                   : PGS
Codec ID                                 : S_HDMV/PGS
Codec ID/Info                            : Picture based subtitle format used on BDs/HD-DVDs
Duration                                 : 2 h 34 min
Bit rate                                 : 69.7 kb/s
Count of elements                        : 4830
Stream size                              : 76.9 MiB (0%)
Title                                    : Spanish (Latin American) (Commentary)
Language                                 : Spanish
Default                                  : No
Forced                                   : No

Text #59
ID                                       : 64
Format                                   : PGS
Codec ID                                 : S_HDMV/PGS
Codec ID/Info                            : Picture based subtitle format used on BDs/HD-DVDs
Duration                                 : 2 h 34 min
Bit rate                                 : 45.2 kb/s
Count of elements                        : 4010
Stream size                              : 49.9 MiB (0%)
Title                                    : Swedish (Commentary)
Language                                 : Swedish
Default                                  : No
Forced                                   : No

Menu
00:00:00.000                             : en:Main Titles
00:02:05.751                             : en:Human Salvage
00:05:14.731                             : en:57 Years
00:08:33.346                             : en:The Park
00:10:51.109                             : en:Inquest
00:15:12.620                             : en:LV-426
00:17:24.001                             : en:The Big Score
00:20:53.127                             : en:Home Alone
00:25:01.542                             : en:Ripley's Decision
00:25:56.471                             : en:Sulaco
00:30:02.717                             : en:The Android
00:32:52.887                             : en:Briefing
00:35:55.862                             : en:The Loader
00:38:02.530                             : en:Express Elevator to Hell
00:45:39.069                             : en:Arrival
00:52:27.519                             : en:Memories
00:54:47.075                             : en:Lab Specimens
00:56:08.114                             : en:Movement
01:00:10.106                             : en:Newt
01:04:46.507                             : en:Rescue Mission
01:10:09.997                             : en:Cocoons
01:12:50.991                             : en:The Battle
01:16:21.869                             : en:Ripley's Rescue
01:21:21.251                             : en:Altercation
01:23:16.199                             : en:Stranded
01:26:20.133                             : en:Barricade
01:31:21.059                             : en:A Mother's Love
01:34:36.420                             : en:Speculation
01:37:24.255                             : en:The Tunnel
01:38:39.705                             : en:Bad News
01:41:22.243                             : en:The Corridor
01:45:02.463                             : en:Dreamland
01:47:14.553                             : en:Not a Dream
01:51:40.443                             : en:For a Percentage
01:52:57.604                             : en:"Game Time"
02:02:09.363                             : en:Little Girl Lost
02:05:53.045                             : en:Ripley's Promise
02:07:40.986                             : en:Reluctant Soldier
02:13:14.528                             : en:The Nest
02:17:28.615                             : en:The Final Countdown
02:22:23.701                             : en:It's Over
02:23:15.712                             : en:Final Confrontation
02:30:15.006                             : en:Dreams
02:31:35.461                             : en:End Titles
